<svg viewBox="0 0 3919.2 4286.12" xmlns="http://www.w3.org/2000/svg"><path d="m1402.64 1343.79 57.01 167.8-522.06 177.35-220.03-647.67 228.65-77.68 163.02 479.86 293.41-99.68z"/><path d="m2032.63 1129.77 57.01 167.8-549.53 186.69-220.03-647.67 537.76-182.69 57.01 167.8-309.11 105.01 27.34 80.47 249.25-84.68 52.67 155.05-249.25 84.68 26 76.54 320.89-109.01z"/><path d="m2797.15 1057.21-247.29 84.01-255.06-241.72-62.33-67.49-1.96.67 49.26 132.12 81.68 240.42-198.23 67.34-220.03-647.67 247.29-84.01 255.39 242.7 62 66.5 1.96-.67-49.26-132.12-81.68-240.42 198.23-67.34 220.03 647.67z"/><path d="m3133.73 942.87-228.65 77.68-220.03-647.67 228.65-77.68z"/><path d="m3875.59 690.84-247.29 84.01-255.06-241.72-62.33-67.49-1.96.67 49.26 132.12 81.68 240.42-198.22 67.34-220.03-647.67 247.29-84.01 255.39 242.7 62 66.5 1.96-.67-49.26-132.12-81.68-240.42 198.22-67.34 220.03 647.67z"/><path d="m1080.9 1795-88.85 30.19-10.2-30.02 59.5-20.21c-7.08-4.05-13.27-9.46-16.82-16.36l24.58-10.3c4.96 10.63 15.81 20.46 23.51 22.35l8.28 24.37z"/><path d="m1041.09 1823.69c30.56-10.38 50.03-3.03 59.17 23.9 9.15 26.92-1.81 44.61-32.37 55-30.56 10.38-50.03 3.03-59.17-23.9-9.15-26.92 1.81-44.61 32.37-55zm16.37 48.2c17.5-5.95 21.57-9.43 19.24-16.3s-7.68-7.15-25.19-1.2c-17.5 5.95-21.57 9.43-19.24 16.3s7.69 7.15 25.19 1.2z"/><path d="m1071.64 1913.61c30.56-10.38 50.03-3.03 59.17 23.89 9.15 26.93-1.81 44.61-32.37 55-30.56 10.38-50.03 3.03-59.17-23.9-9.15-26.92 1.81-44.61 32.37-54.99zm16.37 48.2c17.5-5.95 21.57-9.43 19.24-16.3s-7.68-7.15-25.19-1.2c-17.5 5.95-21.57 9.43-19.24 16.3s7.69 7.15 25.19 1.2z"/><path d="m1082.02 2046.28c-9.15 3.11-16.46-1.16-20.03-11.67-3.57-10.5-.38-18.34 8.78-21.45 9.15-3.11 16.46 1.16 20.03 11.66s.38 18.34-8.78 21.45z"/><path d="m1178.25 2157.14-9.42-27.73-65.83 22.36-10.66-31.37 65.83-22.36-9.47-27.87 23.02-7.82 29.54 86.97-23.02 7.82z"/><path d="m1189.86 2261.61c-29.08 9.88-51.49-1.28-61.09-29.55-9.56-28.14 1.33-50.91 30.41-60.78 29.08-9.88 51.58 1.55 61.14 29.68 9.6 28.27-1.37 50.77-30.45 60.65zm-19.8-58.29c-15.48 5.26-20.84 11.58-17.73 20.74 3.11 9.15 11.17 10.77 26.65 5.51s20.89-11.45 17.78-20.6c-3.11-9.16-11.21-10.91-26.69-5.65z"/><path d="m1222.65 2358.13c-28.27 9.6-49.27.82-58.74-27.04l-14.82-43.62 88.85-30.19 14.82 43.62c9.47 27.87-1.84 47.63-30.11 57.23zm-10.88-32.04c15.21-5.17 21.07-10.46 17.14-22.04l-2.65-7.81-44.16 15 2.65 7.81c3.93 11.58 11.81 12.21 27.02 7.04z"/><path d="m1230.52 2451.56-23.02 7.82-25.61-75.39 88.85-30.19 25.06 73.77-23.02 7.82-14.41-42.41-11.04 3.75 11.62 34.2-21.27 7.23-11.62-34.2-10.5 3.57 14.96 44.02z"/><path d="m1314.06 2523.33-24.19-7.1c4.75-10.77 5.15-19.77 1.72-29.87-2.15-6.33-5.68-9.63-8.64-8.63-2.29.78-1.36 6.17-.19 13.58 4.16 27.72-1.02 41.19-17.99 46.95-18.85 6.4-34.76-8.16-42.17-29.97-7.64-22.48-6.54-34.27-2.3-47.87l25.84 6.24c-4.84 10.05-5.24 19.95-1.3 31.53 2.56 7.54 5.09 9.23 7.38 8.46 3.1-1.05 2.25-7.07 1.04-15.07-2.34-15.27-5.61-37.74 16.33-45.19 18.17-6.17 35.59 4.43 44.69 31.22 5.76 16.96 6.42 29.5-.23 45.73z"/><path d="m1334.52 2617.14-9.42-27.73-65.83 22.36-10.66-31.37 65.83-22.36-9.47-27.87 23.02-7.82 29.54 86.97-23.02 7.82z"/><path d="m1303.44 2686.1-8.14-23.96-18.38 1.59-10.61-31.23 98.64-1.38 12.81 37.7-79.02 59.13-10.88-32.04 15.59-9.8zm17.97-11.21 27.19-17.2-.14-.4-16.27 1.62-15.77 1.3 4.99 14.67z"/><path d="m1364.5 2757.11 14 41.2-50.08 17.01-7.04-20.73 9.73-4.51c-8.91-1.93-15.6-8.36-19.63-20.21-7.82-23.02 1.17-46.5 31.46-56.79 29.08-9.88 51.85 1.46 61.68 30.4 7.46 21.94 4.75 36.53-10.28 49.74l-20.43-25.65c7.67-3.96 9.53-9.09 7.51-15.02-3.52-10.37-11.85-12.79-27.33-7.53-16.83 5.72-21.24 13.07-17.53 23.98 2.61 7.67 7.31 11.78 13.63 9.63l.13-.05-5.08-14.94 19.25-6.54z"/><g fill="#fff"><path d="m1226.91 713.81-9.71 33.07c-14.73-6.49-27.03-7.04-40.83-2.35-8.65 2.94-13.17 7.76-11.8 11.81 1.06 3.13 8.43 1.86 18.57.26 37.9-5.69 56.32 1.4 64.2 24.59 8.75 25.77-11.16 47.52-40.98 57.65-30.74 10.44-46.85 8.94-65.45 3.14l8.53-35.33c13.75 6.62 27.27 7.16 43.1 1.78 10.31-3.5 12.62-6.96 11.56-10.09-1.44-4.23-9.67-3.08-20.6-1.42-20.88 3.19-51.59 7.67-61.79-22.33-8.44-24.85 6.05-48.66 42.68-61.1 23.19-7.88 40.34-8.78 62.52.32z"/><path d="m1368.97 681.15-37.92 12.88 30.58 90.01-42.89 14.57-30.58-90.01-38.1 12.94-10.69-31.47 118.91-40.4 10.69 31.47z"/><path d="m1476.89 719.02-32.76 11.13 2.17 25.13-42.7 14.51-1.88-134.86 51.54-17.51 80.84 108.04-43.81 14.88zm-15.33-24.56-23.51-37.18-.55.19 2.22 22.24 1.78 21.57z"/><path d="m1653.72 617.07c13.13 38.65 1.12 67.37-36.98 80.31l-59.64 20.26-41.27-121.48 59.64-20.26c38.1-12.94 65.12 2.51 78.25 41.17zm-43.81 14.88c-7.07-20.8-14.31-28.81-30.13-23.43l-10.68 3.63 20.51 60.37 10.68-3.63c15.83-5.38 16.69-16.14 9.62-36.94z"/><path d="m1786.23 539.4-37.92 12.88 30.58 90.01-42.89 14.57-30.58-90.01-38.1 12.94-10.69-31.47 118.91-40.4 10.69 31.47z"/><path d="m1920.44 478.2-9.71 33.07c-14.73-6.49-27.03-7.04-40.83-2.35-8.65 2.94-13.17 7.76-11.8 11.81 1.06 3.13 8.43 1.86 18.57.26 37.9-5.69 56.32 1.4 64.2 24.59 8.75 25.77-11.16 47.52-40.98 57.65-30.74 10.44-46.85 8.94-65.45 3.14l8.53-35.34c13.75 6.62 27.27 7.16 43.1 1.78 10.31-3.5 12.62-6.96 11.56-10.09-1.44-4.23-9.67-3.08-20.6-1.42-20.88 3.19-51.59 7.67-61.79-22.33-8.44-24.85 6.05-48.66 42.68-61.1 23.19-7.88 40.34-8.78 62.52.32z"/><path d="m2067.91 456.03c8.88 26.14-3.42 46.13-37.29 57.63l-21.54 7.32 13.13 38.65-42.89 14.57-41.27-121.48 64.42-21.89c33.87-11.51 55.8-3.15 65.43 25.2zm-43.08 14.02c-2.69-7.92-8.48-9.85-18.97-6.29l-14.54 4.94 7.75 22.82 14.54-4.94c10.49-3.56 13.91-8.62 11.22-16.54z"/><path d="m2171.52 483.04-32.76 11.13 2.17 25.13-42.7 14.51-1.88-134.86 51.54-17.51 80.84 108.04-43.81 14.88zm-15.33-24.56-23.51-37.18-.55.19 2.22 22.24 1.78 21.57z"/><path d="m2346.46 415.4 10.38 30.55-109.89 37.33-9.94-29.27 40.71-82.61-60.93 20.7-10.38-30.55 107.13-36.39 9.94 29.27-40.35 82.48 63.32-21.51z"/><path d="m2427.33 422-42.89 14.57-41.27-121.48 42.89-14.57z"/><path d="m2553.76 343.94 10.69 31.48-103.08 35.02-41.27-121.48 100.87-34.27 10.69 31.47-57.98 19.7 5.13 15.09 46.75-15.88 9.88 29.08-46.75 15.88 4.88 14.36z"/><path d="m2632.29 307.41-11.78 4 13.69 40.31-41.97 14.26-41.27-121.48 65.9-22.39c32.4-11.01 53.77-3.08 62.96 23.98 6.07 17.85 2.77 32.32-9.71 43.33l43.97 35.16-46.57 15.82-35.23-32.99zm-21.35-24.16 15.28-5.19c10.86-3.69 13.91-8.01 11.09-16.29-2.75-8.1-7.86-9.85-18.72-6.16l-15.28 5.19 7.63 22.46z"/><path d="m2771.99 228.54 56.32-19.13 23.26 68.47-28.35 9.63-6.16-13.3c-2.63 12.19-11.43 21.34-27.63 26.84-31.48 10.69-63.57-1.6-77.64-43.02-13.51-39.76 1.99-70.89 41.56-84.34 30-10.19 49.94-6.5 68.01 14.06l-35.06 27.92c-5.41-10.48-12.43-13.02-20.53-10.27-14.17 4.82-17.49 16.21-10.3 37.38 7.82 23.01 17.87 29.04 32.78 23.97 10.49-3.56 16.11-9.99 13.17-18.64l-.06-.18-20.43 6.94-8.94-26.32z"/><path d="m2946.77 219.67-32.76 11.13 2.17 25.13-42.7 14.51-1.88-134.86 51.54-17.51 80.84 108.04-43.81 14.88zm-15.33-24.56-23.51-37.18-.55.19 2.22 22.24 1.78 21.57z"/><path d="m3145.89 177.89-46.38 15.76-47.84-45.34-11.69-12.66-.37.12 9.24 24.78 15.32 45.1-37.18 12.63-41.27-121.48 46.38-15.76 47.9 45.52 11.63 12.47.37-.12-9.24-24.78-15.32-45.1 37.18-12.63 41.27 121.48z"/><path d="m3214.47 78.22 56.32-19.13 23.26 68.47-28.35 9.63-6.16-13.3c-2.63 12.19-11.43 21.34-27.63 26.84-31.48 10.69-63.57-1.6-77.64-43.02-13.51-39.76 1.99-70.89 41.56-84.34 30-10.19 49.94-6.5 68.01 14.06l-35.06 27.93c-5.41-10.48-12.43-13.02-20.53-10.27-14.17 4.81-17.49 16.21-10.3 37.37 7.82 23.01 17.87 29.04 32.78 23.97 10.49-3.56 16.11-9.99 13.17-18.64l-.06-.18-20.43 6.94-8.94-26.32z"/></g><path d="m3754.07 1248.14-284.37-566.79-616.61-40.74-358.12 488.88z" fill="#c80000"/><path d="m3238.21 1605.63-41.39 34.97-86.95 32.85-56.64 49.06-50.99-27.28 40.63 152.53-3.72-.22-22.7-22.57-.46 5.67 4.66 113.92-3.07-.58-41.07-22.7-5.98-5.15-84.41-102.63-87.81-120.7 12.37-98.35 32.06 12.33 6.22-36.25-9.81-65.63 2.85-15.94 50.35-43.88 2.85-1.81 52.15 10.85 18.62-3.08 19.47 29.17-45.76 4.09 27.81 1.99 88.88 17.47-26.64 13.88 30.62 8.66 16.6 15.99 41.47 8.37 53.85 17.11 65.91 37.86z" fill="#fff"/><path d="m2864.54 3349.64 6.88-22.54-57.45-141.15-61-216.74-20.19-69.65-56.04 26.93-60.41 179.76-65.1 126.56-34.67 57.3 6.33-28.66 81.76-224.03 7.29-30.94 38.12-272.66 30.45-64.96 8.61-10.16-8.72-47.53 3.44.7 107.89 142.23 83.59 46.85-36.48 16.78 35.96 14.62-100.79 59.56 8.31 102.87 16.18 65.4 28.28 110.66 50.44 151.66 29.2-40.41 29.18-27.2 54.62-34.95 75.75-38.19 14.49-5.74-1.25 3.59-155.81 118.4-54.63 51.25-3.24 1.69-1.04-1.28z" fill="#fff"/><path d="m2602.81 3304.54-70.6 112.45-124.72 295.95-41.8 58.18-2.42 1.64.05-3.58 20.28-41.17 134.48-328.57 19.3-37.19 49.79-49.7 9.82-6.82z" fill="#fff"/><path d="m2905.28 1435.56-7.51-7.33 38.72-38.62 14.24 9.88 12.68 40.33-4.18.71-23.13 2.73-24.32-5.98z" fill="#fff"/><path d="m3007.15 1433.34-9.29 4.75-27.05-15.32-6.88-29.96 5.92-5.06 25.54-2.86 14.33 13.24-1.04 31.69z" fill="#fff"/><path d="m2575.7 2458.52-3.55-4.61-12.53-21.47-7.05-38.6 2.28 1.67 11.18 27.59 9.61 29.25z" fill="#fff"/><path d="m2458.76 1495.76 8.58-22.56 32.81 2.92-11.15 22.87-21.4.01z" fill="#fff"/><path d="m3810.36 1047.17-79.3-209.68-92.69-86.12-68.22-40.98-161.44-78.86-79.44-29.54-89.07-21.74-59.16-8.93-55.77-3.88-123.57 5.04-79.69 17.88-106.27 47.92-97.57 58.68-138.28 104.97-73.04 79.31-33.07 48.78-62.13 148.56-13.35 63.44-27.84 94.62-5.86 15.93-16.41 54.43-14.41 30.59-9.04 15.52-7.83 38.74 15.29 102.53 15.75 57.6 3.39 8.32 5.94 52.1-8.16 39.01-12.2 44.23-2.38 48.6 48.19 268.97-3.7 60.37-7.06 44.23-.22 30 7.4 37.93 9.41 22.03 8.4 25.54 2.3 19.75-15 68.1.33 5.77 16.22-45.26 9.39-14.04 3.67-2.6-.98 12.49-13.79 67.39-2.81 30.76 1.33 23.89 5.62 25.72-.45-43.09 2.47-19.79 3.68-20.62 4.87-19.1.5 7.93-1.74 15.85-.24 47.28 7.92 52.29 6.1 23.14 3.38 2.67-2.97-19.76-.67-14.96.41-.89 1.3-.02 6 14.23 12.03 40.14 13.75 31.96 3.01 2.65-7.18-24.29-2.93-23.64 4.53 5.93 17.48 33.68 17.92 19.47-2.82-5.25 36.88 30.9 3.1-.23-36.54-60.75 41.35 38.81 29.15 31.46 2.61.82-8.33-15.65-9.98-13.73-11.41-12.59 2.11-.89 33.26 15.63 14.29 20.42 9.81 16.22h3.63s-2.15-6.16-2.15-6.16l-6.12-12.57-29.04-74.26-12.3-46.28-6.05-41.34-.49-8.29-4.83 20.76-2.57 20.74 1.71 19.37-4.33-13.34-1.32-13.78 10.35-60.9 11.35-23.08 20.4-22.04 8.65-17.39-28.92-36.08-7.35 2.31 6.53-49.19-1.58-18.79-2.89-17.68 4.97-33.14 7.87-9.54s15.65-1.05 15.65-1.05l44.26-12.3 31.62-3.14-15.2-13.02-23.88-1.03 62.42-6.83 33.08-6.14 39.39-17 1.32-3.15-52.26-2.64 24.03-10.63 15.42-6.04 1.39-2-7.78-4.4 20.99-11.5-3.36-1.38-40.9-6.33-18.53.71-2.63 1.47-.91 10.05-40.29.59-150.87-.5-48.34 114.9 22.21 74.04-24.47-17.13-30.68-31.28-3.09 26.98-2.7 4.48-9.43-26.24-17.22-64.48 1.89-28.64 5.38-13.95 20.96-44.22 13.41-19.53 11.51-21.68 11.48-27.39 17.14-22.32 10.79-18.23 7.12-11.08 18.38-24.84.55-3.45 17.51-19.01.28-.39.2.02 34.81-27.17 8.83-10.85 1.09-3.45-11.01 1.54-10.29 3.71-10.15 4.65-10.07-5.3-31.59-15.69-22.57-24.58-11.6-28.48-.61-10.93 2.68-4.66 34.28-.58 15.87-7.74 109.2-126.11 21.6-31.14 17.48-29.09 1.69-6.04-39 5.31 48.58-59.56 75.34-120.54-7.32-46.09-1.24-23.32 11 6.08 12.4 3.64 11.83 1.76 13.13-.16-9.02-7.13-9.45-5.6-9.51-7.19 11.95 3.39 39.41 4.93 17.89-1.59 33.45-9.11 9.69-5.18 60.01-24.22 170.75-28.43 42.42-.7 91.39 25 5.7.3-4-4.6-28.03-14.65-68.52-17.88-26.69-3.17-76.56 2.36-41.65 9.53-44.63 14.27-70.05 15.59-16.97 2.04 27.44-8.46 94.89-39.42 39.99-7.46 89.81-2.38 41.28 4.31 33.28 13.48 3.6-.57-1.96-3.35-41.45-49.98-18.33-18.4-25.49-12.94-21.85-1.98-34.92 1.2-43.5 5.63-44.74 10.06-7.14-.12 25.24-9.56 27.16-14.63 56.67-37.4 22.2-11.36 36.77-15.55 24.71-14.85 2.7-3.77-27.88-.35-13.88-1.45-40.87-.33-2.65-.59 56.88-23.05 43.07-20.96 21.39-16.62-24.64 1.56-23.98-.28-49.56-4.61 11.3-5.27 129.64-76.47 69.91-48.06 61.92-64.2 7.55-17.1-.99-17.87-24.34-49.28 34.54 13.43 58.41 45 57.68 66.29 24.89 35 3.83 2.1-61.09-130.32-1.48-5.11 51.29 47.58 35.23 44.73 74.46 70 145.52 195.86 48.68-39.25zm-1306.77 511.49-14.81 8.04-48.37 22.6-17.05 3.4 40.72-22.24 15.86-11.8 7.37-8.35 34.08-6.94-17.79 15.29zm107.45-175.83-11.02 17.43-6.13 26.19-3.23 7.61-11.59.79-16.19 35.46-28.92 53.55-6.24 6.25-8.07-3.07-9.74 1.63-30.68 8.71-31.52 4.62-26.71-1.89-.74-6.89 29.73-1.63 24.17-2.96 23.01-5.7 27.15-6.45 4.54-4.52-9.14-4.5-34.74 5.23-7.41-2.58-20.42-11.28-4.98-10.3 5.91-29.09-27.75 9.78-3.18 2.09.78 16.83 1.88 6.71 16.27 18.74 7.97 3.33-36.54-4.1-7.45-7.11.62-19.28 8.26-18.07 20.56-17.25 52.98-10.21 6.95-3.08-13.11-3.43-15.96-5.48-34.98-7.46-40.43-10.91-25.62-3.3-37.63 2.9 1.46-3.21 39.4-7.68 9.15-3.17-1.98-2.85-11.86.74-6.96 1.06 21.24-8.24 32.68-6.23-18.07-2.99-27.58 2.52-4.05-1.49 34.02-14.27-8.18-3.47-39.04-4.75 8.03-1.44 12.92-1.17 58.74 2.96 91.09 16.23 41.3-6.62 15.72-26.26 20.81-25.52 17.49-36.78 6.91-22.24.83 33.97 2.62 32.85 5.05 31.5 7.02 32.48-29.43-3.26z" fill="#fff"/><path d="m2696.36 3680.47 29.26-219.23.02-3.07-2.17 2.42-28.06 84.34-5.75 22.24-3.21 6.78-2.97-3.68-11.2-33.13-3.43-6.64-3.94 1.23-85.51 81.06-7.99 5.29-3.12-4.95-10.45-46.65-.89-5.92-.61-6.94 2.8-28.77 59.84-249.37 14.18-37.32-11.2-4.02-25.77-4.06-4.25 7.35-22.41 56.65-63.86 132.14-5.98 8.99-1.26-3.22 1.41-4.79 62.78-169.51 16.55-54.42-.5-4.12-51.78 83.06-17.03 22.15-3.03.59 3.83-9.91 93.16-185.61 74.61-196.99 11.96-19.6 16.66-11.98 33.37-5.58h10.08s1.73 4.22 1.73 4.22l5.62 55.51 9.34 59.08 48.68 169.84 54.83 156.45.74 6.71-3.82-4.28-18.22-36.69-15.58-10.38-16.98-.36-13.92-1.07-28.9-.57-3.73 14.8-45.54 291.61-22.84 89.99-5.53 10.31zm-40.5-466.16 8.92-29.61 21.52-49.38 34.13-64.34 36.44-60.75 1.01-14.97-16.25-35.32-40.64-9.58-29.62 8.24-4.58 10.39-63.34 233.1 25.82 5.24 26.59 6.97z"/><path d="m2644.7 1524.93 5.98-14.83 40.88-81.16 3.46-12.88-14.96-6.79-16.87-6.19-15.7-3.89 1.49-3.89 7.99-4.66 4.74-17.65-.61-37.67.7-10.94 11.33-47.19 1.95-1.27 2.97 9.17 4.3 25.57 3.71 13.45 21.24 23.76 4.39 2.32 15.24 6.83 49.64 2.84 1.53-1.31-17.78-5.32-7.41-5.16 57.68-16.52-17.1-13.16 32.26-4.1 21.29-3.02 30.4-13.04 24.85-7.87 74.26-5.66 64.48-19.57 92.17-17.01 46.29 6.46-4.06 3.37-19.46 3.1 1.54 2.51 7.67 2.21 48.16 21.49 41.05 14.74 40.61 4.32 2.37 1.23-104.42 21.7 25.48 10.82 36.58 18.38 58.82 21.17 13.95.81 4.47 2.27-8.99 2.65-9.73 2.16-9.51 3.06-9.39 4.5 34.16 10.3 17.1 3.46-3.16 3.04-60.6 21.59-12.17 6.89-47.83 12.08-36.71 2.22 7.1 4.08 7.5 2.76 49.77 22.58-1.71 1.91-3.98.04-61.76-11.18-20.72-2.63h-11.99s-64.39 6.9-64.39 6.9l-19.42-1.53 3.44-4.89 41.35-20.03 3.69-3.14-1.76-3.36-32.37-13.8-66.26 7.58-15.76-2.14-9.41-9.74-3.01-14.59-1.13-9.46-5.91-1.23-19.86 1.56-26.83 13.18-4.02 11.03v14.08s-30.95 22.32-30.95 22.32l-16.5 18.19 3.22 4.8 13.84 7.94 22.3 11.18 1.84 2.2-3.42 1-16.94-.74-36.51-5.32-16.19-4.6-11.18 19.28-2.38-28.48 6.71-11.12 6.67-9.68-6.89.93-50.48 24.07-12.34 3.97-17.73.67-56.66-15.91-12.4 1.56-14.38 10.67-16.96 16.96-15.98 12.35zm547.8-119.06-5.38-18.51-23.11-33.18-21.16-15.01-38.64-12.41-33.19-1.32 13.29-10.38-6.54-2.51-55.74 9.07-29.67 11.84-32.62 17.31-14.22 13.87 2.23 3.26 42.79-1.08 56.56 4.8 69.02 22.8 51.12 11.88 25.24-.42z"/><path d="m2642.04 2782.01-68.36 67.21-548.33 437.76-11.87 15.98-26.2 45.63-3.88 9.26-12.88 43.05-53.49 259.94 1.16 2.6 2.26-1.49 169.94-199.97 16.74-24.82 31.42-74.65 40.09-72.47 85.74-88.01 185.98-219.12 4.47-3.5-1.21 3.37-285.6 456.21-36.26 76.72-15.85 45.23-37.02 127.57-9.78 18.28-143.93 194.1-.3 3.24 6.21-4.82 200.99-182.53 4.16-2.46-.84 6.65-44.36 166.98 1.32 3.01 2.74-5.16 173.44-413.59 268.74-420.57 75.99-93.81 6.65-13.14 23.94-149.68.09-13.67z"/><path d="m2545.55 1832.61-16.59 11.82-17.36-3.49-9.85-4.81-16.16-17.06 2.33-11.43 12.91-9.34 7.06-3.63 9.34 1.63 25.54 27.86z"/><path d="m2408.9 3629.92-.72 7.24-95.61 203.24-3.3 4.58-.36-2.75z"/><path d="m2825.69 1903.92-3.07-3.7-2.57-8.19-.08.06z"/><path d="m4215.04 2741.44-11.19-8.36-193.49-162.19-20.1-19.24-117.08-164.28-24.7-30.04-47.59-19.61-10.99-.11-5.77-2.37-8.3-130.82 5.42-66.54 21.22-110.7 3.34-30.64 2.45-55.54 57.24-68.23 44.8-62.43 28.79-66.74 17.44-71.78 10.76-86-3.3-44.71-25.79-62.02-3.96-5.77-2.85-9.41 4.24-146.67 2.03-22.75-1.72-43.88-6.78-68.43-15.09-74.29-34.25-92.62-32.39-63.1-23.15-38.52-6.2-7.78-54.84-52.49-122.44-102.48-2.44.47 2.14 3.01 30.39 34.41 3.81 26.88-30.75-5.37 15.6 39.48 34.86 85.03-.24 4.2-19.35-30.92-7.97-8.27 1.3 5.99 9.67 20.83 33.02 88.93-1.31 2.97-57.68-64.26-1.49.08 4.82 10.64 17.06 32.79 4.9 11.74-8.98-7.34-23.29-23.35-8.78-7.06 12.05 107.47 6.65 28.18-.09 4.76-1.92-1.94-28.83-66.97-3.26-2.71.02 1.96 26.67 118.74 10.55 33.33.69 5.65-.83-.22-23.77-46.11-19.98-53.31-3.75-4.09 14.4 56.1 6.61 40.33 7.41 80.39-.04 9.51-25.88-65.15-.54 9.37 4.9 28.51-1.6 5-25.44-22.06-47.43-23.34-1.41 1.3 34.93 43.21 7.42 41.09-10.37 121.14-2.55 12.87-7.74-10.49-1.42 2.31-10.01 112.16 1.8 90.8-10.23 28.65-26.57 27-20.94 23.95-4.01 8.01-10.37 48.63 1.86.64 11.72-32.37 4.38-8.36.5 4.62-2.1 22.81-11.28 42.36-7.29 19.66-3.35 15.57 1.39 3.27 4.37-6.46 14.26-12.04 4.67.09.29 8.58-5.12 17.24-9.47 50.95.04 3.99 6.94 38.26 13.91 58.26 4.91 46.55-.02 20.99-4.49 42.58-16.36 43.84-42.1 50.31-52.86 37.52-54.06 30.21-25.21 16.12-5.92 2.89-33.11 22.68-16.18 9.91-54.56 30.01 1.5-21.54 2.48-52.74 5.27-25.4 3.95-32.61-5.94-61.49-11.4-62.7-.83-2.24 1.93-53.83 6.7-50.36-2.12-1.96-2.86 5.91-7.71 25.84-2.56 11.68-5.64 53.53-1.91 46.85-5.19 31.37-25.37 55.34-19.46 59.83-13.92 31.89-15.73 13.14-18.93 9.25-21.75 10.18-.89-1.28 5.35-21.2 7.79-20.54-3.77-21.71-21.31-23.73-23.32-21.84-12.06-14.62-6.58-21.44 6.36-5.91 2.91-3.14 8.74-32.64-2.04-45.55-12.14-34.84-24.38-38.72-39.03-34.02-9.17-6.06-41.09-31.65-21.2-10.19-13.27-10.07-24.33-23.69-3.27.48 2.28 6.47 5.25 11.87 2.16 6.35-6.74-7.4-18.01-27.44-5.64-11.89-.08.06-1.68-5.66-8.93-18.98-7.37-10.62-21.25-19.62-8.04-13.2 8.37-15.06 13.22-2.46 50.15 37.92 31.56 9.98 23.66 2.47 3.9-1.44-3.73-20.07-16.22-34.59-75.73-104.17-9.65-18.5-4.59-11.05-10.58-11.65-24.52-7.37-57.96.17-15.8-1.86-37.89-8.96-6.26-.22-3.78 8.57 34.67 22.42.93.37 6.75 1.71 29.81 2.45 35.86 7.47 33.27 38.49 4.55 27.53 1.31 21.89-15.95 24.82-6.54.6-5.22-3.4-7.6-6.47-25.82-16.85-45.67-20.2-35.01-6.2-33.21 10.25-16.7 19.56 1.55 12.77 7.73 7.8 20.7 11.35-4.56 1.57-13.57-3.26-11.42-6-11.1-14.19 5.83-21.02 7.76-7.67 16.73-8.86 32.29-10.43 4.59-3.18-1.13-1.58-27.41-12.03-33.74-6.25 16.41-6.14 31.8-7.85-11.81-3.06-42.13 6.85-6.4 2.81-17.68 16.92-16.51 25.39 8.03 25-28.48 8.78 2.59 9.65 5.72.64 13.29 3.62 5.32 2.76 12.42 11.14 20.41 29.64-5.76 9.98-24.47 20.48-1.94.45-.89-4.57 2.36-8.66-1.06-3.29-4.91 4.56-25.8 16.82-42.7 32.05-5.94 10.95 10.8-9.71 9.61-7.15 10.92-6.45 6.27-.02 6.48-1.37-10.23 17.72 3.19-1.9 7.74-10.42 3.14-1.27-1.14 10.8 8.1-13.55 3.33-.78-5.24 32.28.72 26.73 7.98 24.64 9.55 16.07-.5 3.57-17.77-19.7-11.79-30.37-2.49-1.33 6.28 29.96-5.02-1.41-1.23 7.46 1.19 8.89.42 7.85-12.2-31.32-2.58-8.6-2.43-1.33-1.45 7.29.67 7.94.13 8.33-7.94-16.02-6.47-18.29-.76 15.5-1.76 13.84-.59 28.84-6.07-18.32-2.54-1.73.3 29.7-3.71-24.1-.88 7.23.95 43.73-9.59-37.28-2.78-1.82.62 17.22-3.16 4 .95 9.99-3.05 1.04 4.94 46.94-1.58-3.64-7.64-49.19-.61-6.95-2.58-3.46-3.95 6.82-3.55 27.89-4.28 28.99.57 24.9-2.66 3.61-6.4-2.07 3.19 39.86-4.79-4.26-.24 4.69 16.27 27.09 1.51 7.83 3.42 10.33-7.7-10.2-4.28-6.73-3.81-.22 24.35 33.42-1.2 4.54 26.33 39.81 3.76 1.44-2.91-10.22-4.76-23.47-1.57-11.84 5.34-51.47 10.39-26.85 17.49-34.82 13.92-16.73 33.91-16.27 45.42-5.85 51.96-.08 21.86 1.7 36.98.25 16.82 2.86-.3 6.52 2.33 1.27 7.9.92 17.94.88 27.54 4.65 15.92.07 21.6-3.88 28.75 4.69 30.5 17.07 11.12 8.34 30.49 35.62 23.47 23.16 3.36 1.4.61-1.77-7.24-21.73-10.81-21.4.19-3.4 5.22 2.73 12.76 11.15 25.91 59.44-.25 40.4 22.43-11.22 11.1-14.68.48 2.63-2.23 52.5-1.31 11.89-5.5 25.52-.59-13.69-2.77-13.68-6.21-11.05-1.72 30.85-15.64 41.85-13.88 19.51-36.74 28.5-3.47-.81 18.09-35.49-2.83 1.03-12.75 19.09-21.71 20.16-2.4-.51 5.91-6.52 21.37-33.69 2.15-5.44-.98-.85-7.56 7.66-31.08 20.51-40.49 10.93-28 15.07-8.55 5.67-4.8-4.17-3.91-7.91-95.91 56.28-77.03 53.17-43.13 16.01 17.12 42.92 8.25 18.15 9.78 14.4 5.34 1.31 15.41-4.22 7.06-.39 7 6.66 15.71-6.52 27.89 31.34 83.5 95.33 14.88 13.3 35.47 23.78 53.3 11.79 37.22 14.5 2.85 3.83-3.06 2.1-86.11 48.57-39.41 17.95-41.95-33-33.12-56.24-21.43-80.01-1.51-1.24-9.09 11.69-8.93 19.54-13.58 31.72.34 5.96 22.66 65.8 33.65 49.47 24.83 17.73 12.34-1.55 33.24-20.29 956.67-415.78 28.77-8.36 3.94-.55 3.63 2.67-156.74 179.45-331.59 333.87-298.99 373.09-201.9 307.21-77.98 140.58.39 2.83 2.36-1.39 7.39-8.12 383.27-560.69 173.2-223.4 15.32.95 3.67 3.53-165.66 220.74-95.91 157.9-50.04 111.02-105.03 189.52.61 2.54 476.53-312.57-16.33-58 2.88-2.2 47.29 79.95 26.2 58.26 5.31 17.16v5.52s-6 3.95-6 3.95l-759.06 460.39-1.34 3.72 132.72-55.06-43.82 57.21-.93 1.73 2.91-.19 299.4-139.37 4.48.47-6.09 28.1.72 4.74 2.75-.34 611.57-246.41 776.34-442.23 230.78-21.99 31.96-54.45-483.96-303.33zm-1580.07-764.13-20.61-39.9-8.48-21.22 3.91-39.04 5.41-10.67 2.75-2.83 1.86-.57 3.14 3.41-8.06 37.03-1.03 9.92 4.35 14.87.39 3.64 8.05 20.41 2.48 1.71 5.91-45.24-.92 14.97.12 27.95 3.26 27.58-2.51-2.03zm32.7 17.69-24.41-52.84 2.29-35.3 2.51-5.41 4.11-5.48 1.49 2.93-.39 1.95.34 48.98 14.79 41.2.78 4.7zm72.66 7.24-19.6-31.28-9.18-13.06-14.49-23.86-8.17-15.79 3.93-20.72 3.89 6.22 40.82 84.05 5.67 15.92-2.88-1.48zm476.25 460.12-50.64 6.97 3.88-3.35 249.61-85.04 5.01.65-64.22 72.11-15.99 11.75-219.7 104.42zm452.75-35.87-3.71 14.04-10.55 5.32-539.06 223.68 2.32-4.6 330.55-203.86 35.69-28.73 27.24-27.85 67.7-81.16 21.72-34.66 15.99-32.2 8.64-22.34 22.56-75.54 12.44-67.65 1.09-10.91 2.11-4.29 3.77.51 62.54 26.39 1.99 1.8.28 7.08-63.29 314.95zm95.59-507.13-43.89-6.79-32.02-18.32-18.42-20.45-1.1 8.49-2.45 8.41-4.09-15.77-3.38-29.69.33-49.96 8.08-82.29-6.49-42.26-6.61-22-5.1-46.42.13-1.99 23.77-17.01 19.91 12.36 28.51 50.13 3.29 18.56 2.28 21.8 8.7 13.29 3.04-4.16.28-18.98 1.46-9.58 7.45-2.05 19.05 5.79 30.1 24.21 3.85 4.59 7.5 24.83-9.32 30.46-17.83.87-35.68-3.47-10.55-3.39-2.63-16.1-3.88-1.2-7.87 4.31-18.81 13.18-8.98 9.28-.39 22.57 17.9 15.13 6.55 1.84 16.69-3.87 58.27-17.72 54.4-22.43 24.8-28.7.57-25.62-10.42-12.48-16.84-6.19-26.43-22.29-4.78-12.06-10.91-33.22-18.59-45.24-2-9.39 3.6-1.26 9.35 3.37 46.83 31.24-1.3-8.38-11.6-30.84-1.68-11.79 4.51-11.85 8-7.48 19.42.57 6.37 6.31 22.78 33.94 10.88 22.42 3.23 15.68-25.5 4.1 19.61 37.57 4.56 32.53.07 24.98-9.01 41.67-12.94 20.03-40.53 30.29-40.8 21.1-21.17 19.53-5.51 15.66 3.72 5.36 6.34-2.33 12.32-10.15 26.32-15.79 26.22-9.67 38.19-29.75 29.07-68.13 16.05-66.89 4.49-54.11-10.81-41.37-25.5-33.96-17.71-12.96-25.13-9.3-8.91.36-51.02 24.05-27.68 28.62-14.61 29.36-5.03 14.11-7.17 10.68-3.33 1.87-4.69-3.54-6.34-13.56-13.19-42.92-2.88-16.68 15.17-34.01 85.21-38.98 37.85-7.82 9.99.03 25.2 5.33 41.45 27.32 7.78 7.76 24.75 53.2 1.47 62.83-2.22 22.81-17.9 87.97-24.38 64.3-27.21 43.02-27.51 36.76-35.53 36.26-20.79 11.76-38.65 9.81zm-401.57 1341.08-13.5.19-3.49-7.35-12.21-91.89v-7.5s23.59 67.98 23.59 67.98l4.43 8.54 9.99 1.3 226.83-15.7 16.91 16.69z"/><path d="m2587.44 1416.19-11.7-17.4-15.43-50.71-.16-13.98-1.38-3.3-1.28 2.57-6.88 29.12.12 5.91 2.58 19.76-1.84 4.96-3.32.37-38.71-3.34-46.78-1.45-45.76 9.92-5.01 4.34 3.82 2.7 49.3 7.17 18.84 6.4 6.91 5.57-.3 6.32-21.71-.42-33.76 8.82-53.75 41.17-10.31 22.58 4.16 23.75 21.73 18.14.41-7.54 5.21-9.74 9.08-16.33 11.77-.68 1.56-2.31 1.38-4.77 2.62-13.72 10.36-14.06 5.64-.39 2.24 6.42 9.28 18.43 29.37 11.04 26.12-6.55 5.48-2.52 2.65-21.06 9.84.51 21.21 5.66 7.24-.63 22.4-42.8 10.46-3.53 1.04-2.43-4.69-21.96zm-107.87 76.38-5.42 1.17-4.99-.96-2.67-3.03 2.24-2.82 5.42-1.17 2.62.24 5.04 3.75z"/></svg>